<svg width="1063" height="237" viewBox="0 0 1063 237" fill="none" xmlns="http://www.w3.org/2000/svg">
<path d="M213.049 61.0425V40.9985H203.037V20.9545H193.025V0.910461H140.933V20.9545H130.921V40.9985H120.909V61.0425H110.897V233.415H142.952V173.283H191.034V233.415H223.089V61.0425H213.077H213.049ZM186.953 141.218H142.91V73.0774H152.921V53.0334H162.933V32.9894H170.954V53.0334H180.966V73.0774H190.977V141.218H186.924H186.953Z" fill="#FEF804"/>
<path d="M233.712 0.910461H366.525V34.1274H266.919V100.561H366.525V166.995H333.318V133.778H266.905V233.415H233.698V0.910461H233.712ZM366.525 34.1274H399.732V100.561H366.525V34.1274ZM366.525 166.981H399.732V233.415H366.525V166.981Z" fill="#FEF804"/>
<path d="M769.385 4.2677L760.098 5.9321C757.667 6.3731 755.789 6.98481 754.467 7.75299C753.144 8.52118 752.476 9.57388 752.476 10.8969V222.091C752.476 224.851 753.187 226.786 754.623 227.896C756.06 228.891 758.107 229.389 760.753 229.389H770.366C775.784 229.389 781.416 228.123 787.275 225.577C793.134 223.03 799.264 218.45 805.663 211.821C812.177 205.078 818.918 195.461 825.886 182.971L846.933 145.5C847.261 144.832 847.602 144.391 847.929 144.177C848.256 143.964 848.597 143.95 848.925 144.177C849.479 144.291 849.806 144.561 849.92 145.002C850.148 145.443 850.148 146.169 849.92 147.151L833.679 233.017C833.352 234.781 833.068 235.89 832.854 236.331C832.627 236.772 832.357 237 832.03 237C831.589 237 830.536 236.673 828.887 236.004C827.337 235.449 825.402 234.838 823.084 234.183C820.766 233.629 818.221 233.358 815.462 233.358H663.991C663.323 233.358 662.825 233.244 662.498 233.031C662.171 232.704 662 232.362 662 232.035C662 231.267 662.882 230.712 664.645 230.371L673.932 228.706C676.477 228.265 678.354 227.654 679.563 226.886C680.886 226.117 681.554 225.065 681.554 223.742V10.8969C681.554 9.57388 680.886 8.52118 679.563 7.75299C678.354 6.98481 676.463 6.3731 673.932 5.9321L664.645 4.2677C662.882 3.94051 662 3.38571 662 2.60329C662 2.2761 662.171 1.99159 662.498 1.7782C662.825 1.45101 663.323 1.2803 663.991 1.2803H770.053C770.722 1.2803 771.219 1.45101 771.547 1.7782C771.874 2.00581 772.044 2.2761 772.044 2.60329C772.044 3.37148 771.163 3.92628 769.399 4.2677H769.385Z" fill="#FEF804"/>
<path d="M950.436 220.185C939.059 211.479 930.469 198.491 924.653 181.178C918.836 163.88 915.935 142.328 915.935 116.537V116.224C915.935 90.5323 918.822 69.0942 924.582 51.9095C930.341 34.7107 938.86 21.7653 950.123 13.0592C961.386 4.35306 975.138 0 991.393 0C1006.27 0 1018.88 3.35726 1029.21 10.0576C1039.53 16.7721 1047.44 26.0188 1052.94 37.8119C1058.45 49.605 1061.56 63.3612 1062.3 79.0948L1062.46 86.0085H1022.99L1022.84 79.4078C1022.21 70.3887 1020.63 62.6357 1018.11 56.1346C1015.6 49.6334 1012.17 44.626 1007.82 41.1122C1003.47 37.5985 998.248 35.8487 992.175 35.8487C984.41 35.8487 977.954 38.8361 972.763 44.8109C967.573 50.7857 963.676 59.7052 961.045 71.541C958.428 83.391 957.12 98.2711 957.12 116.21V116.523C957.12 134.561 958.428 149.569 961.045 161.575C963.662 173.582 967.601 182.544 972.834 188.462C978.068 194.394 984.681 197.353 992.645 197.353C998.518 197.353 1003.54 195.76 1007.73 192.559C1011.93 189.358 1015.26 184.536 1017.72 178.091C1020.18 171.647 1021.83 163.496 1022.67 153.637L1022.98 147.193H1062.44L1062.13 154.42C1061.29 171.405 1058.06 185.773 1052.46 197.509C1046.86 209.246 1038.99 218.137 1028.88 224.168C1018.77 230.2 1006.64 233.216 992.488 233.216C975.821 233.216 961.799 228.863 950.436 220.157V220.185Z" fill="#FEF804"/>
<path d="M0 161.348V7.93793C0 3.85515 2.19008 1.6644 6.25736 1.6644H93.9031C97.9704 1.6644 100.16 3.85515 100.16 7.9237V227.085C100.16 231.153 97.9704 233.344 93.9031 233.344H6.25736C2.19008 233.344 0 231.153 0 227.085V195.774C0 191.705 2.19008 189.515 6.25736 189.515H51.6375C55.7048 189.515 57.8948 187.324 57.8948 183.255V173.866C57.8948 169.798 55.7048 167.607 51.6375 167.607H6.25736C2.19008 167.607 0 165.416 0 161.348ZM89.2101 84.6428C89.2101 62.7211 72.0023 45.508 50.0873 45.508C28.1724 45.508 10.9504 63.034 10.9504 84.6428C10.9504 106.252 28.4852 123.778 50.0731 123.778C71.661 123.778 89.1959 106.565 89.1959 84.6428H89.2101Z" fill="#FEF804"/>
<path d="M921.609 2.8736L872.987 234.382H842.198L890.806 2.8736H921.595H921.609Z" fill="#FEF804"/>
</svg>
